HIERARCHY
ROOT hip
{
	OFFSET 0.000000 0.000000 0.000000 
	CHANNELS 6 Xposition Yposition Zposition Xrotation Zrotation Yrotation
	JOINT abdomen
	{
		OFFSET 0.000000 3.402643 0.000000 
		CHANNELS 3 Xrotation Zrotation Yrotation
		JOINT chest
		{
			OFFSET 0.000000 8.438565 -0.680529 
			CHANNELS 3 Xrotation Zrotation Yrotation
			JOINT neck
			{
				OFFSET 0.000000 10.207942 -0.272212 
				CHANNELS 3 Xrotation Zrotation Yrotation
				JOINT head
				{
					OFFSET 0.000000 3.130431 0.000000 
					CHANNELS 3 Xrotation Zrotation Yrotation
					End Site
					{
						OFFSET 0.000000 3.130435 0.000000 
					}
				}
			}
			JOINT lCollar
			{
				OFFSET 3.470700 6.669187 -0.816635 
				CHANNELS 3 Yrotation Zrotation Xrotation
				JOINT lShldr
				{
					OFFSET 3.198488 0.000000 0.000000 
					CHANNELS 3 Zrotation Yrotation Xrotation
					JOINT lForeArm
					{
						OFFSET 10.139888 0.000000 0.000000 
						CHANNELS 3 Yrotation Zrotation Xrotation
						JOINT lHand
						{
							OFFSET 8.370511 0.000000 0.000000 
							CHANNELS 3 Zrotation Yrotation Xrotation
							End Site
							{
								OFFSET 4.083176 0.000000 0.000000 
							}
						}
					}
				}
			}
			JOINT rCollar
			{
				OFFSET -3.470700 6.669187 -0.816635 
				CHANNELS 3 Yrotation Zrotation Xrotation
				JOINT rShldr
				{
					OFFSET -3.198488 0.000000 0.000000 
					CHANNELS 3 Zrotation Yrotation Xrotation
					JOINT rForeArm
					{
						OFFSET -10.139888 0.000000 0.000000 
						CHANNELS 3 Yrotation Zrotation Xrotation
						JOINT rHand
						{
							OFFSET -8.370511 0.000000 0.000000 
							CHANNELS 3 Zrotation Yrotation Xrotation
							End Site
							{
								OFFSET -4.083176 0.000000 0.000000 
							}
						}
					}
				}
			}
		}
	}
	JOINT lThigh
	{
		OFFSET 5.308129 -1.633274 1.361059 
		CHANNELS 3 Xrotation Zrotation Yrotation
		JOINT lShin
		{
			OFFSET -2.041588 -20.007561 0.000000 
			CHANNELS 3 Xrotation Zrotation Yrotation
			JOINT lFoot
			{
				OFFSET 0.000000 -19.190928 -1.224953 
				CHANNELS 3 Xrotation Yrotation Zrotation
				End Site
				{
					OFFSET 0.000000 -2.449906 4.627600 
				}
			}
		}
	}
	JOINT rThigh
	{
		OFFSET -5.308129 -1.633274 1.361059 
		CHANNELS 3 Xrotation Zrotation Yrotation
		JOINT rShin
		{
			OFFSET 2.041588 -20.007561 0.000000 
			CHANNELS 3 Xrotation Zrotation Yrotation
			JOINT rFoot
			{
				OFFSET 0.000000 -19.190928 -1.224953 
				CHANNELS 3 Xrotation Yrotation Zrotation
				End Site
				{
					OFFSET 0.000000 -2.449906 4.627600 
				}
			}
		}
	}
}
MOTION
Frames: 17
Frame Time: 0.033333
-1.202597 50.477520 4.575548 -0.125858 0.458983 0.136793 0.000000 0.000000 0.000000 -9.246110 -1.315296 -3.907461 12.263892 -1.962874 -0.234572 9.619034 0.078125 -0.078125 -3.521967 9.154817 6.304141 -30.973360 22.879990 -48.076382 -19.960001 9.113180 15.861140 -5.965170 8.110043 -8.041577 3.089181 -14.089146 8.026228 30.835817 -11.768215 -43.111439 11.330511 -10.616808 57.440006 5.735151 -5.110308 -8.050530 0.925854 5.169028 7.220167 7.478982 -2.322551 -5.934607 -4.424614 0.274239 -2.406430 1.734803 -5.840734 -12.507539 9.128059 0.397921 -3.570593 -6.797812 -0.026727 -0.802699 
-1.200943 50.495495 4.574837 -0.037654 0.458982 0.175854 0.000000 0.000000 0.000000 -9.236129 -1.295704 -3.975800 12.375751 -1.874959 -0.381295 9.453614 -0.205078 -0.136753 -3.521967 9.154817 6.304141 -30.917482 22.908705 -47.886826 -19.921297 9.045868 15.782467 -5.947019 8.111762 -8.048435 3.089181 -14.089146 8.026228 30.840660 -11.833616 -43.012413 11.342079 -10.592633 57.576126 5.775847 -5.125084 -8.046044 0.564933 5.160205 7.168605 8.001708 -2.225935 -5.930782 -4.268187 0.311348 -2.750064 1.796469 -5.858622 -12.547443 8.800336 0.494864 -3.588315 -6.475675 -0.013303 -0.806440 
-1.205575 50.497849 4.577113 -0.018514 0.458983 0.127027 0.000000 0.000000 0.000000 -9.178639 -1.295780 -3.926984 12.467675 -1.728437 -0.547215 9.278955 -0.429685 -0.214911 -3.521967 9.154817 6.304141 -30.880310 22.824268 -47.982979 -19.954929 9.070457 15.570021 -5.514833 7.940651 -8.037766 3.089181 -14.089146 8.026228 30.764210 -11.915765 -42.730240 11.319952 -10.506918 57.647007 5.643063 -5.415599 -8.095761 0.693265 5.175727 7.176582 7.698856 -2.255203 -5.993044 -4.151201 0.307503 -2.719154 1.589608 -5.883778 -12.581935 9.170050 0.494633 -3.523562 -6.397824 -0.050053 -0.715845 
-1.199098 50.492172 4.587566 -0.067218 0.478514 0.136796 0.000000 0.000000 0.000000 -9.003079 -1.295795 -3.917221 12.359843 -1.747973 -0.527694 9.259520 -0.556638 -0.175868 -3.521967 9.154817 6.304141 -30.845694 22.718555 -48.097599 -19.982363 9.116287 15.629030 -5.521463 8.115985 -8.062206 3.089181 -14.089146 8.026228 30.732983 -11.986588 -42.823261 11.373437 -10.530054 57.613152 5.747451 -5.529410 -8.107178 0.672316 5.147941 7.165266 7.898838 -2.234972 -5.915432 -4.161922 0.301814 -2.827529 1.844743 -5.888173 -12.588809 8.795197 0.505235 -3.470849 -6.514785 0.000230 -0.832540 
-1.199096 50.492645 4.586712 -0.057262 0.488279 0.156328 0.000000 0.000000 0.000000 -8.963589 -1.285977 -3.966036 12.418758 -1.816332 -0.517937 9.298678 -0.556638 -0.185633 -3.521967 9.154817 6.304141 -30.773027 22.698149 -47.945747 -19.934549 9.089601 16.065300 -5.696127 7.986411 -8.039948 3.089181 -14.089146 8.026228 30.710634 -11.988594 -42.929554 11.410687 -10.566419 57.876148 5.547732 -5.496277 -8.112482 0.741459 5.134759 7.172527 7.738971 -2.265223 -5.917746 -4.287772 0.320325 -2.629865 1.745742 -5.884306 -12.570137 8.984564 0.465371 -3.494326 -6.524534 -0.026955 -0.780636 
-1.194031 50.481758 4.580988 0.001082 0.488280 0.127032 0.000000 0.000000 0.000000 -8.873222 -1.315172 -3.985565 12.320057 -1.767511 -0.498412 9.386378 -0.556638 -0.166103 -3.521967 9.154817 6.304141 -30.839817 22.676844 -48.113525 -19.967646 9.110006 15.696579 -5.384973 7.976286 -8.050546 3.089181 -14.089146 8.026228 30.782137 -11.899630 -43.173241 11.432676 -10.626464 57.920856 5.497460 -5.345308 -8.103723 0.741299 5.124360 7.181618 7.637148 -2.303414 -5.923622 -4.338724 0.281651 -2.529971 1.599955 -5.923824 -12.555579 9.122680 0.436369 -3.480489 -6.642022 -0.014317 -0.796690 
-1.185424 50.489334 4.579757 0.030194 0.478515 0.107500 0.000000 0.000000 0.000000 -8.666351 -1.315046 -4.063669 11.694209 -1.738221 -0.478888 10.079574 -0.654295 -0.127056 -3.521967 9.154817 6.304141 -31.049875 22.659506 -48.478947 -20.037569 9.207813 15.745503 -5.499171 8.099442 -8.057963 3.089181 -14.089146 8.026228 30.915571 -11.835498 -43.328495 11.424326 -10.644738 57.772774 5.416493 -5.395317 -8.109275 0.643350 5.111834 7.133766 7.742026 -2.255957 -5.897874 -4.192858 0.319582 -2.714351 1.659436 -5.907428 -12.543547 8.937553 0.446017 -3.517072 -6.544564 -0.012803 -0.785056 
-1.186792 50.492634 4.577251 0.049644 0.478515 0.097734 0.000000 0.000000 0.000000 -8.519000 -1.305194 -4.132010 11.427206 -2.050751 -0.312999 10.293847 -0.429687 -0.117257 -3.521967 9.154817 6.304141 -31.111265 22.782476 -48.289566 -19.967972 9.096195 15.473751 -5.574539 8.090381 -8.048344 3.089181 -14.089146 8.026228 31.017027 -11.745351 -43.476482 11.446238 -10.666389 57.790184 5.671278 -5.412438 -8.088851 0.623566 5.147330 7.195846 7.718860 -2.304183 -5.898963 -4.289266 0.329615 -2.625953 1.609441 -5.884831 -12.532510 8.995642 0.455780 -3.513983 -6.494906 -0.041514 -0.765697 
-1.178982 50.477028 4.574371 0.136973 0.498047 0.029381 0.000000 0.000000 0.000000 -8.359477 -1.344121 -4.151537 11.077897 -2.695310 -0.078498 10.380265 0.166015 -0.205077 -3.521967 9.154817 6.304141 -31.293318 22.841942 -48.623627 -20.031321 9.193777 15.697800 -5.317651 8.191568 -8.065630 3.089181 -14.089146 8.026228 31.140123 -11.691988 -43.656803 11.457041 -10.678337 57.702164 5.858356 -5.565394 -8.092804 0.673324 5.106853 7.191726 7.496729 -2.343578 -5.819672 -4.406042 0.295294 -2.429212 1.384132 -5.919686 -12.508761 9.239577 0.377647 -3.391411 -6.554449 -0.032623 -0.740552 
-1.163371 50.477974 4.590270 0.116771 0.488281 -0.048826 0.000000 0.000000 0.000000 -8.331674 -1.305064 -4.210114 11.111897 -2.705078 0.029264 10.458864 0.078125 -0.087891 -3.521967 9.154817 6.304141 -31.494703 22.982174 -48.575726 -20.034447 9.167292 15.579456 -5.275832 8.167217 -8.067577 3.089181 -14.089146 8.026228 31.136087 -11.571984 -43.315979 11.363101 -10.586455 57.453934 5.527753 -5.694932 -8.136360 0.712285 5.087906 7.159922 7.512094 -2.332638 -5.751919 -4.422950 0.285286 -2.454774 1.451942 -5.987733 -12.572668 9.157086 0.446785 -3.371066 -6.447433 -0.030860 -0.718116 
-1.155995 50.485550 4.608908 0.008933 0.488281 -0.097653 0.000000 0.000000 0.000000 -8.410688 -1.305129 -4.171063 11.883035 -2.617175 -0.176044 10.077942 0.048828 -0.214844 -3.521967 9.154817 6.304141 -31.557854 22.847532 -48.647446 -20.047529 9.228853 16.035770 -5.549182 8.239942 -8.076086 3.089181 -14.089146 8.026228 31.172321 -11.511996 -42.958599 11.318038 -10.504159 57.351734 5.338211 -5.602310 -8.127057 0.789016 5.099885 7.218148 7.678013 -2.323326 -5.731786 -4.471162 0.300593 -2.501553 1.745114 -5.959133 -12.635653 8.846047 0.505540 -3.263687 -6.494915 -0.019403 -0.809210 
-1.157176 50.478931 4.618844 0.047913 0.488280 -0.107418 0.000000 0.000000 0.000000 -8.370916 -1.314869 -4.171063 12.013739 -2.763647 -0.244798 9.852437 0.175778 -0.351561 -3.521967 9.154817 6.304141 -31.633188 22.868248 -48.623722 -20.036156 9.191363 15.599981 -5.313343 8.289841 -8.082332 3.089181 -14.089146 8.026228 31.251001 -11.542779 -43.159393 11.376399 -10.560241 57.376991 5.172733 -5.662173 -8.152497 0.849192 5.095628 7.226173 7.500565 -2.342477 -5.703008 -4.548740 0.280943 -2.319479 1.599067 -5.961836 -12.578553 9.084927 0.426744 -3.248462 -6.564470 -0.000911 -0.790483 
-1.155894 50.483177 4.628592 0.086809 0.488280 -0.126949 0.000000 0.000000 0.000000 -8.398769 -1.344138 -4.141774 11.929126 -2.597613 -0.332575 10.108005 -0.097655 -0.341813 -3.521967 9.154817 6.304141 -31.672594 22.846064 -48.617138 -20.017738 9.155471 15.367455 -5.189241 8.237018 -8.078456 3.089181 -14.089146 8.026228 31.320290 -11.587125 -43.215656 11.403105 -10.571887 57.583439 5.191198 -5.660286 -8.144745 0.653676 5.115218 7.222316 7.848843 -2.324218 -5.780502 -4.334436 0.299445 -2.628406 1.618496 -5.949800 -12.577291 8.955523 0.455655 -3.232634 -6.475090 -0.020288 -0.820224 
-1.148471 50.490280 4.637298 0.096824 0.488281 -0.097653 0.000000 0.000000 0.000000 -8.247105 -1.382926 -4.239637 11.663170 -2.675751 -0.274051 10.362127 -0.146482 -0.312524 -3.521967 9.154817 6.304141 -31.816250 22.933712 -48.907570 -20.059525 9.217616 15.427182 -5.293913 8.213165 -8.083505 3.089181 -14.089146 8.026228 31.357870 -11.624723 -43.186150 11.394575 -10.543211 57.283005 5.203696 -5.609325 -8.141978 0.613526 5.098171 7.202379 7.900942 -2.323214 -5.744658 -4.324062 0.305290 -2.647076 1.679205 -5.996377 -12.649309 8.853893 0.523995 -3.242674 -6.300238 -0.016190 -0.775217 
-1.149886 50.496891 4.651589 0.057981 0.449218 -0.078123 0.000000 0.000000 0.000000 -8.312575 -1.412089 -4.268927 11.975983 -2.558560 -0.293549 10.215444 -0.117186 -0.292988 -3.521967 9.154817 6.304141 -31.715345 22.941294 -48.838200 -20.052774 9.202136 15.416562 -5.182422 8.119909 -8.068825 3.089181 -14.089146 8.026228 31.369221 -11.613308 -43.125103 11.391240 -10.527867 57.249622 5.363204 -5.569256 -8.127588 0.682650 5.151302 7.253819 7.907838 -2.333893 -5.755098 -4.228080 0.299390 -2.733713 1.785829 -5.934992 -12.613286 8.739219 0.505521 -3.287828 -6.386927 -0.028013 -0.812724 
-1.141842 50.483177 4.670131 0.009017 0.439452 -0.097653 0.000000 0.000000 0.000000 -8.162436 -1.441194 -4.327748 11.873842 -2.656236 -0.185800 10.146651 -0.039062 -0.244147 -3.521967 9.154817 6.304141 -31.666397 23.087540 -48.873222 -20.036961 9.185606 15.252280 -5.174256 8.003679 -8.049567 3.089181 -14.089146 8.026228 31.399975 -11.541200 -43.461731 11.421411 -10.621344 57.211430 5.342938 -5.435244 -8.105170 0.829063 5.133990 7.259065 7.742830 -2.342372 -5.765405 -4.297102 0.308140 -2.613876 1.754300 -5.948078 -12.634637 8.934063 0.505431 -3.259895 -6.445723 -0.034172 -0.794293 
-1.129167 50.490280 4.671225 0.067970 0.380859 -0.058592 0.000000 0.000000 0.000000 -8.373141 -1.373064 -4.307976 12.268150 -2.402313 -0.293530 9.990400 -0.039062 -0.244147 -3.521967 9.154817 6.304141 -31.606710 23.002567 -48.520008 -19.976866 9.094681 15.270660 -5.003874 8.083256 -8.078534 3.089181 -14.089146 8.026228 31.316172 -11.640918 -43.260914 11.421289 -10.597932 57.135239 5.184289 -5.543234 -8.134858 0.711844 5.179494 7.255225 7.842916 -2.342734 -5.810518 -4.452274 0.306075 -2.499127 1.656885 -5.938430 -12.674390 9.050086 0.554060 -3.300650 -6.261308 -0.025924 -0.747428 
